<?xml version="1.0" encoding="UTF-8"?>
<svg xmlns="http://www.w3.org/2000/svg" style="stroke-dasharray:none; shape-rendering:auto; font-family:'Arial'; text-rendering:auto; fill-opacity:1; color-interpolation:auto; color-rendering:auto; font-size:12; fill:black; stroke:black; image-rendering:auto; stroke-miterlimit:10; stroke-linecap:square; stroke-linejoin:miter; font-style:normal; stroke-width:1; stroke-dashoffset:0; font-weight:normal; stroke-opacity:1;" contentScriptType="text/ecmascript" preserveAspectRatio="xMidYMid meet" zoomAndPan="magnify" version="1.0" contentStyleType="text/css" xml:xlink="http://www.w3.org/1999/xlink" width="3210" height="1300"><rect x="10" y="10" width="3200" height="1290" ry="0" rx="0" style="stroke:#000000; fill:#FFFFFF" /><rect x="40" y="1180" width="3170" height="120" ry="0" rx="0" style="stroke:#000000; fill:#FFFFDD" /><g componentSequence="12"><text x="-1240" y="47" transform="rotate(270)" text-anchor="middle" style="font-weight:bold;font-size:10px;stroke:none; fill:#434343"><tspan dy="14" x="-1240">DIRAF</tspan></text></g><rect x="40" y="829" width="3170" height="117" ry="0" rx="0" style="stroke:#000000; fill:#0070BA" /><g componentSequence="11"><text x="-887" y="47" transform="rotate(270)" text-anchor="middle" style="font-weight:bold;font-size:10px;stroke:none; fill:#434343"><tspan dy="14" x="-887">USO</tspan></text></g><rect x="40" y="712" width="3170" height="117" ry="0" rx="0" style="stroke:#000000; fill:#FAD3D5" /><g componentSequence="10"><text x="-770" y="47" transform="rotate(270)" text-anchor="middle" style="font-weight:bold;font-size:10px;stroke:none; fill:#434343"><tspan dy="14" x="-770">AJUR</tspan></text></g><rect x="40" y="478" width="3170" height="117" ry="0" rx="0" style="stroke:#000000; fill:#1A8F74" /><g componentSequence="9"><text x="-536" y="47" transform="rotate(270)" text-anchor="middle" style="font-weight:bold;font-size:10px;stroke:none; fill:#434343"><tspan dy="14" x="-536">UCOF</tspan></text></g><rect x="40" y="361" width="3170" height="117" ry="0" rx="0" style="stroke:#000000; fill:#8DDB9F" /><g componentSequence="8"><text x="-419" y="47" transform="rotate(270)" text-anchor="middle" style="font-weight:bold;font-size:10px;stroke:none; fill:#434343"><tspan dy="14" x="-419">CPL</tspan></text></g><rect x="40" y="244" width="3170" height="117" ry="0" rx="0" style="stroke:#000000; fill:#1AB83F" /><g componentSequence="7"><text x="-302" y="47" transform="rotate(270)" text-anchor="middle" style="font-weight:bold;font-size:10px;stroke:none; fill:#434343"><tspan dy="14" x="-302">UGP</tspan></text></g><rect x="40" y="1063" width="3170" height="117" ry="0" rx="0" style="stroke:#000000; fill:#F3CEFF" /><g componentSequence="6"><text x="-1121" y="47" transform="rotate(270)" text-anchor="middle" style="font-weight:bold;font-size:10px;stroke:none; fill:#434343"><tspan dy="14" x="-1121">DISUPER</tspan></text></g><rect x="40" y="127" width="3170" height="117" ry="0" rx="0" style="stroke:#000000; fill:#1AB88E" /><g componentSequence="5"><text x="-185" y="47" transform="rotate(270)" text-anchor="middle" style="font-weight:bold;font-size:10px;stroke:none; fill:#434343"><tspan dy="14" x="-185">UC SEBRAE</tspan></text></g><rect x="40" y="595" width="3170" height="117" ry="0" rx="0" style="stroke:#000000; fill:#207B85" /><g componentSequence="4"><text x="-653" y="47" transform="rotate(270)" text-anchor="middle" style="font-weight:bold;font-size:10px;stroke:none; fill:#434343"><tspan dy="14" x="-653">Superior Imadiato</tspan></text></g><rect x="40" y="946" width="3170" height="117" ry="0" rx="0" style="stroke:#000000; fill:#FB8B57" /><g componentSequence="3"><text x="-1004" y="47" transform="rotate(270)" text-anchor="middle" style="font-weight:bold;font-size:10px;stroke:none; fill:#434343"><tspan dy="14" x="-1004">Diretoria Vinculada</tspan></text></g><rect x="40" y="10" width="3170" height="117" ry="0" rx="0" style="stroke:#000000; fill:#F0F0F0" /><g componentSequence="2"><text x="-68" y="47" transform="rotate(270)" text-anchor="middle" style="font-weight:bold;font-size:10px;stroke:none; fill:#434343"><tspan dy="14" x="-68">Solicitante</tspan></text></g><g componentSequence="1"><text x="-655" y="17" transform="rotate(270)" text-anchor="middle" style="font-weight:bold;font-size:10px;stroke:none; fill:#434343"><tspan dy="14" x="-655">Solicitação de Curso</tspan></text></g><g sequence="4"><ellipse cx="162" cy="64" rx="17" ry="17" stroke-width="1" style="fill:url(#linearGradient66FF6696FF96B6FFB6_1873606376);" stroke="336633" /></g><g sequence="65"><rect x="110" y="159" width="106" height="70" ry="5" rx="5" style="fill:url(#linearGradientF8FBFEEDF5FCDEEDFAD4E7F8E2E5E9_1634407789);" stroke="191970" /></g><g componentSequence="65"><text x="163" y="174" text-anchor="middle" style="font-weight:bold;font-size:10px;stroke:none; fill:#333399"><tspan dy="14" x="163">Aprovação do</tspan><tspan dy="14" x="163">Superior</tspan></text></g><g sequence="66"><rect x="250" y="36" width="106" height="56" ry="5" rx="5" style="fill:url(#linearGradientF8FBFEEDF5FCDEEDFAD4E7F8E2E5E9_1700044184);" stroke="191970" /></g><g componentSequence="66"><text x="303" y="53" text-anchor="middle" style="font-weight:bold;font-size:10px;stroke:none; fill:#333399"><tspan dy="14" x="303">Ajustes</tspan></text></g><g sequence="67"><rect x="110" y="268" width="106" height="70" ry="5" rx="5" style="fill:url(#linearGradientF8FBFEEDF5FCDEEDFAD4E7F8E2E5E9_542515030);" stroke="191970" /></g><g componentSequence="67"><text x="163" y="283" text-anchor="middle" style="font-weight:bold;font-size:10px;stroke:none; fill:#333399"><tspan dy="14" x="163">Analise da</tspan><tspan dy="14" x="163">Solicitação</tspan></text></g><g sequence="68"><rect x="110" y="386" width="106" height="70" ry="5" rx="5" style="fill:url(#linearGradientF8FBFEEDF5FCDEEDFAD4E7F8E2E5E9_684045826);" stroke="191970" /></g><g componentSequence="68"><text x="163" y="401" text-anchor="middle" style="font-weight:bold;font-size:10px;stroke:none; fill:#333399"><tspan dy="14" x="163">Analise e</tspan><tspan dy="14" x="163">Aprovação</tspan></text></g><g sequence="69"><rect x="330" y="503" width="106" height="70" ry="5" rx="5" style="fill:url(#linearGradientF8FBFEEDF5FCDEEDFAD4E7F8E2E5E9_289152522);" stroke="191970" /></g><g componentSequence="69"><text x="383" y="518" text-anchor="middle" style="font-weight:bold;font-size:10px;stroke:none; fill:#333399"><tspan dy="14" x="383">Analise e</tspan><tspan dy="14" x="383">Aprovação</tspan></text></g><g sequence="70"><rect x="600" y="261" width="106" height="84" ry="5" rx="5" style="fill:url(#linearGradientF8FBFEEDF5FCDEEDFAD4E7F8E2E5E9_1346759144);" stroke="191970" /></g><g componentSequence="70"><text x="653" y="276" text-anchor="middle" style="font-weight:bold;font-size:10px;stroke:none; fill:#333399"><tspan dy="14" x="653">Elaborar e</tspan><tspan dy="14" x="653">Assinar Termo</tspan><tspan dy="14" x="653">de Referencia</tspan></text></g><g sequence="74"><rect x="930" y="854" width="106" height="70" ry="5" rx="5" style="fill:url(#linearGradientF8FBFEEDF5FCDEEDFAD4E7F8E2E5E9_1081729049);" stroke="191970" /></g><g componentSequence="74"><text x="983" y="869" text-anchor="middle" style="font-weight:bold;font-size:10px;stroke:none; fill:#333399"><tspan dy="14" x="983">Emissão de</tspan><tspan dy="14" x="983">Contrato</tspan></text></g><g sequence="75"><rect x="1160" y="964" width="106" height="84" ry="5" rx="5" style="fill:url(#linearGradientF8FBFEEDF5FCDEEDFAD4E7F8E2E5E9_1166617522);" stroke="191970" /></g><g componentSequence="75"><text x="1213" y="979" text-anchor="middle" style="font-weight:bold;font-size:10px;stroke:none; fill:#333399"><tspan dy="14" x="1213">Emissão de</tspan><tspan dy="14" x="1213">Ordem de</tspan><tspan dy="14" x="1213">Serviço</tspan></text></g><g sequence="81"><rect x="1890" y="613" width="106" height="84" ry="5" rx="5" style="fill:url(#linearGradientF8FBFEEDF5FCDEEDFAD4E7F8E2E5E9_875864391);" stroke="191970" /></g><g componentSequence="81"><text x="1943" y="628" text-anchor="middle" style="font-weight:bold;font-size:10px;stroke:none; fill:#333399"><tspan dy="14" x="1943">Colertar</tspan><tspan dy="14" x="1943">Assinatura do</tspan><tspan dy="14" x="1943">Forcenedor</tspan></text></g><g sequence="82"><rect x="2070" y="261" width="106" height="84" ry="5" rx="5" style="fill:url(#linearGradientF8FBFEEDF5FCDEEDFAD4E7F8E2E5E9_1262552192);" stroke="191970" /></g><g componentSequence="82"><text x="2123" y="276" text-anchor="middle" style="font-weight:bold;font-size:10px;stroke:none; fill:#333399"><tspan dy="14" x="2123">Analise - Diária,</tspan><tspan dy="14" x="2123">Passagem,</tspan><tspan dy="14" x="2123">Outros</tspan></text></g><g sequence="83"><rect x="2310" y="971" width="106" height="70" ry="5" rx="5" style="fill:url(#linearGradientF8FBFEEDF5FCDEEDFAD4E7F8E2E5E9_1144478937);" stroke="191970" /></g><g componentSequence="83"><text x="2363" y="986" text-anchor="middle" style="font-weight:bold;font-size:10px;stroke:none; fill:#333399"><tspan dy="14" x="2363">Medição do</tspan><tspan dy="14" x="2363">Contrato</tspan></text></g><g sequence="84"><rect x="2510" y="15" width="106" height="98" ry="5" rx="5" style="fill:url(#linearGradientF8FBFEEDF5FCDEEDFAD4E7F8E2E5E9_1223637846);" stroke="191970" /></g><g componentSequence="84"><text x="2563" y="30" text-anchor="middle" style="font-weight:bold;font-size:10px;stroke:none; fill:#333399"><tspan dy="14" x="2563">Partipação e</tspan><tspan dy="14" x="2563">Envio dos</tspan><tspan dy="14" x="2563">Documentos do</tspan><tspan dy="14" x="2563">Evento</tspan></text></g><g sequence="86"><rect x="2960" y="29" width="106" height="70" ry="5" rx="5" style="fill:url(#linearGradientF8FBFEEDF5FCDEEDFAD4E7F8E2E5E9_1497404821);" stroke="191970" /></g><g componentSequence="86"><text x="3013" y="44" text-anchor="middle" style="font-weight:bold;font-size:10px;stroke:none; fill:#333399"><tspan dy="14" x="3013">Ajustes e</tspan><tspan dy="14" x="3013">Pendências</tspan></text></g><g sequence="87"><rect x="2960" y="261" width="106" height="84" ry="5" rx="5" style="fill:url(#linearGradientF8FBFEEDF5FCDEEDFAD4E7F8E2E5E9_442953529);" stroke="191970" /></g><g componentSequence="87"><text x="3013" y="276" text-anchor="middle" style="font-weight:bold;font-size:10px;stroke:none; fill:#333399"><tspan dy="14" x="3013">Realizar</tspan><tspan dy="14" x="3013">Tratativa dos</tspan><tspan dy="14" x="3013">Documentos</tspan></text></g><g sequence="88"><ellipse cx="3167" cy="303" rx="17" ry="17" stroke-width="3" style="fill:url(#linearGradientFF6666FF9696FFB6B6_1682553144);" stroke="993333" /></g><g sequence="103"><ellipse cx="417" cy="193" rx="17" ry="17" stroke-width="3" style="fill:url(#linearGradientFF6666FF9696FFB6B6_1431112556);" stroke="993333" /></g><g sequence="103"><polygon points=" 408 189 413 184 418 189 423 184 428 189 423 194 428 199 423 204 418 199 413 204 408 199 413 194" style="stroke:none; fill:#993333" /></g><g sequence="104"><ellipse cx="417" cy="303" rx="17" ry="17" stroke-width="3" style="fill:url(#linearGradientFF6666FF9696FFB6B6_142397549);" stroke="993333" /></g><g sequence="104"><polygon points=" 408 299 413 294 418 299 423 294 428 299 423 304 428 309 423 314 418 309 413 314 408 309 413 304" style="stroke:none; fill:#993333" /></g><g sequence="126"><ellipse cx="417" cy="420" rx="17" ry="17" stroke-width="3" style="fill:url(#linearGradientFF6666FF9696FFB6B6_634321276);" stroke="993333" /></g><g sequence="126"><polygon points=" 408 416 413 411 418 416 423 411 428 416 423 421 428 426 423 431 418 426 413 431 408 426 413 421" style="stroke:none; fill:#993333" /></g><g sequence="142"><rect x="600" y="854" width="106" height="70" ry="5" rx="5" style="fill:url(#linearGradientF8FBFEEDF5FCDEEDFAD4E7F8E2E5E9_208077956);" stroke="191970" /></g><g componentSequence="142"><text x="653" y="869" text-anchor="middle" style="font-weight:bold;font-size:10px;stroke:none; fill:#333399"><tspan dy="14" x="653">Emitir Parecer</tspan><tspan dy="14" x="653">Jurídico</tspan></text></g><g sequence="148"><ellipse cx="787" cy="303" rx="17" ry="17" stroke-width="3" style="fill:url(#linearGradientFF6666FF9696FFB6B6_827095055);" stroke="993333" /></g><g sequence="159"><polygon points=" 200 524 230 494 260 524 230 554 200 524" style="fill:url(#linearGradientFAFBFCFFFFCC_1608333811);" stroke="000000" /></g><path style="fill:none; stroke-width:6; stroke:#000000;" d="M220.0 524.0 L240.0 524.0" /><path style="fill:none; stroke-width:6; stroke:#000000;" d="M230.0 514.0 L230.0 534.0" /><g componentSequence="159"><text x="230" y="557" text-anchor="middle" style="font-weight:bold;font-size:10px;stroke:none; fill:#333399"><tspan dy="14" x="230">Paralelo</tspan></text></g><g sequence="160"><polygon points=" 490 524 520 494 550 524 520 554 490 524" style="fill:url(#linearGradientFAFBFCFFFFCC_227159661);" stroke="000000" /></g><path style="fill:none; stroke-width:6; stroke:#000000;" d="M510.0 524.0 L530.0 524.0" /><path style="fill:none; stroke-width:6; stroke:#000000;" d="M520.0 514.0 L520.0 534.0" /><g componentSequence="160"><text x="520" y="557" text-anchor="middle" style="font-weight:bold;font-size:10px;stroke:none; fill:#333399"><tspan dy="14" x="520">Join</tspan></text></g><g sequence="161"><rect x="330" y="1080" width="106" height="70" ry="5" rx="5" style="fill:url(#linearGradientF8FBFEEDF5FCDEEDFAD4E7F8E2E5E9_972900476);" stroke="191970" /></g><g componentSequence="161"><text x="383" y="1095" text-anchor="middle" style="font-weight:bold;font-size:10px;stroke:none; fill:#333399"><tspan dy="14" x="383">Analise e</tspan><tspan dy="14" x="383">Aprovação</tspan></text></g><g sequence="171"><polygon points=" 790 875 820 845 850 875 820 905 790 875" style="fill:url(#linearGradientFAFBFCFFFFCC_1797505868);" stroke="000000" /></g><path style="fill:none; stroke-width:6; stroke:#000000;" d="M810.0 875.0 L830.0 875.0" /><path style="fill:none; stroke-width:6; stroke:#000000;" d="M820.0 865.0 L820.0 885.0" /><g componentSequence="171"><text x="820" y="908" text-anchor="middle" style="font-weight:bold;font-size:10px;stroke:none; fill:#333399"><tspan dy="14" x="820">Paralelo</tspan></text></g><g sequence="173"><polygon points=" 1360 875 1390 845 1420 875 1390 905 1360 875" style="fill:url(#linearGradientFAFBFCFFFFCC_1569160570);" stroke="000000" /></g><path style="fill:none; stroke-width:6; stroke:#000000;" d="M1380.0 875.0 L1400.0 875.0" /><path style="fill:none; stroke-width:6; stroke:#000000;" d="M1390.0 865.0 L1390.0 885.0" /><g componentSequence="173"><text x="1390" y="908" text-anchor="middle" style="font-weight:bold;font-size:10px;stroke:none; fill:#333399"><tspan dy="14" x="1390">Join</tspan></text></g><g sequence="177"><rect x="767" y="610" width="106" height="70" ry="5" rx="5" style="fill:url(#linearGradientF8FBFEEDF5FCDEEDFAD4E7F8E2E5E9_19061217);" stroke="191970" /></g><g componentSequence="177"><text x="820" y="625" text-anchor="middle" style="font-weight:bold;font-size:10px;stroke:none; fill:#333399"><tspan dy="14" x="820">Coleta de</tspan><tspan dy="14" x="820">Assinatura</tspan></text></g><g componentSequence="89"><text x="172" y="120" style="font-size:10px;font-weight:none;stroke:none; fill:#333399" text-anchor="left" /></g><g componentSequence="90"><text x="173" y="248" style="font-size:10px;font-weight:none;stroke:none; fill:#333399" text-anchor="left" /></g><g componentSequence="91"><text x="312" y="185" style="font-size:10px;font-weight:none;stroke:none; fill:#333399" text-anchor="left" /></g><g componentSequence="93"><text x="173" y="362" style="font-size:10px;font-weight:none;stroke:none; fill:#333399" text-anchor="left" /></g><g componentSequence="105"><text x="318" y="193" style="font-size:10px;font-weight:none;stroke:none; fill:#333399" text-anchor="left" /></g><g componentSequence="117"><text x="1952" y="394" style="font-size:10px;font-weight:none;stroke:none; fill:#333399" text-anchor="left" /></g><g componentSequence="118"><text x="2133" y="768" style="font-size:10px;font-weight:none;stroke:none; fill:#333399" text-anchor="left" /></g><g componentSequence="119"><text x="2372" y="444" style="font-size:10px;font-weight:none;stroke:none; fill:#333399" text-anchor="left" /></g><g componentSequence="124"><text x="3118" y="303" style="font-size:10px;font-weight:none;stroke:none; fill:#333399" text-anchor="left" /></g><g componentSequence="125"><text x="312" y="185" style="font-size:10px;font-weight:none;stroke:none; fill:#333399" text-anchor="left" /></g><g componentSequence="127"><text x="318" y="420" style="font-size:10px;font-weight:none;stroke:none; fill:#333399" text-anchor="left" /></g><g componentSequence="139"><text x="312" y="240" style="font-size:10px;font-weight:none;stroke:none; fill:#333399" text-anchor="left" /></g><g componentSequence="140"><text x="312" y="240" style="font-size:10px;font-weight:none;stroke:none; fill:#333399" text-anchor="left" /></g><g componentSequence="141"><text x="318" y="303" style="font-size:10px;font-weight:none;stroke:none; fill:#333399" text-anchor="left" /></g><g componentSequence="145"><text x="1953" y="395" style="font-size:10px;font-weight:none;stroke:none; fill:#333399" text-anchor="left" /></g><g componentSequence="149"><text x="748" y="303" style="font-size:10px;font-weight:none;stroke:none; fill:#333399" text-anchor="left" /></g><g componentSequence="150"><text x="663" y="599" style="font-size:10px;font-weight:none;stroke:none; fill:#333399" text-anchor="left" /></g><g componentSequence="155"><text x="2368" y="199" style="font-size:10px;font-weight:none;stroke:none; fill:#333399" text-anchor="left" /></g><g componentSequence="156"><text x="1040" y="1006" style="font-size:10px;font-weight:none;stroke:none; fill:#333399" text-anchor="left" /></g><g componentSequence="157"><text x="1040" y="1006" style="font-size:10px;font-weight:none;stroke:none; fill:#333399" text-anchor="left" /></g><g componentSequence="158"><text x="663" y="599" style="font-size:10px;font-weight:none;stroke:none; fill:#333399" text-anchor="left" /></g><g componentSequence="162"><text x="173" y="515" style="font-size:10px;font-weight:none;stroke:none; fill:#333399" text-anchor="left" /></g><g componentSequence="163"><text x="305" y="538" style="font-size:10px;font-weight:none;stroke:none; fill:#333399" text-anchor="left" /></g><g componentSequence="164"><text x="473" y="538" style="font-size:10px;font-weight:none;stroke:none; fill:#333399" text-anchor="left" /></g><g componentSequence="165"><text x="529" y="358" style="font-size:10px;font-weight:none;stroke:none; fill:#333399" text-anchor="left" /></g><g componentSequence="166"><text x="238" y="898" style="font-size:10px;font-weight:none;stroke:none; fill:#333399" text-anchor="left" /></g><g componentSequence="167"><text x="528" y="889" style="font-size:10px;font-weight:none;stroke:none; fill:#333399" text-anchor="left" /></g><g componentSequence="168"><text x="2677" y="301" style="font-size:10px;font-weight:none;stroke:none; fill:#333399" text-anchor="left" /></g><g componentSequence="169"><text x="3023" y="180" style="font-size:10px;font-weight:none;stroke:none; fill:#333399" text-anchor="left" /></g><g componentSequence="170"><text x="3023" y="180" style="font-size:10px;font-weight:none;stroke:none; fill:#333399" text-anchor="left" /></g><g componentSequence="172"><text x="900" y="889" style="font-size:10px;font-weight:none;stroke:none; fill:#333399" text-anchor="left" /></g><g componentSequence="174"><text x="1208" y="889" style="font-size:10px;font-weight:none;stroke:none; fill:#333399" text-anchor="left" /></g><g componentSequence="175"><text x="1374" y="1006" style="font-size:10px;font-weight:none;stroke:none; fill:#333399" text-anchor="left" /></g><g componentSequence="176"><text x="1469" y="303" style="font-size:10px;font-weight:none;stroke:none; fill:#333399" text-anchor="left" /></g><g componentSequence="178"><text x="830" y="762" style="font-size:10px;font-weight:none;stroke:none; fill:#333399" text-anchor="left" /></g><g componentSequence="179"><text x="1124" y="769" style="font-size:10px;font-weight:none;stroke:none; fill:#333399" text-anchor="left" /></g><g componentSequence="180"><text x="758" y="889" style="font-size:10px;font-weight:none;stroke:none; fill:#333399" text-anchor="left" /></g><path style="fill:none; stroke:#000000;stroke-width:1" d="M161.0 81.0 L161.0 157.0" /><polygon style="fill:#000000; stroke:#000000;" points=" 166 147 161 157 156 147 161 149" /><path style="fill:none; stroke:#000000;stroke-width:1" d="M162.0 229.0 L162.0 266.0" /><polygon style="fill:#000000; stroke:#000000;" points=" 167 256 162 266 157 256 162 258" /><path style="fill:none; stroke:#000000;stroke-width:1" d="M216.0 193.0 L302.0 192.0 L301.0 92.0" /><polygon style="fill:#000000; stroke:#000000;" points=" 296 102 301 92 306 102 301 100" /><path style="fill:none; stroke:#000000;stroke-width:1" d="M216.0 193.0 L398.0 193.0" /><polygon style="fill:#000000; stroke:#000000;" points=" 388 188 398 193 388 198 390 193" /><path style="fill:none; stroke:#000000;stroke-width:1" d="M301.0 92.0 L302.0 192.0 L216.0 193.0" /><polygon style="fill:#000000; stroke:#000000;" points=" 226 198 216 193 226 188 224 193" /><path style="fill:none; stroke:#000000;stroke-width:1" d="M301.0 92.0 L302.0 302.0 L216.0 302.0" /><polygon style="fill:#000000; stroke:#000000;" points=" 226 307 216 302 226 297 224 302" /><path style="fill:none; stroke:#000000;stroke-width:1" d="M216.0 302.0 L302.0 302.0 L301.0 92.0" /><polygon style="fill:#000000; stroke:#000000;" points=" 296 102 301 92 306 102 301 100" /><path style="fill:none; stroke:#000000;stroke-width:1" d="M162.0 338.0 L162.0 384.0" /><polygon style="fill:#000000; stroke:#000000;" points=" 167 374 162 384 157 374 162 376" /><path style="fill:none; stroke:#000000;stroke-width:1" d="M216.0 302.0 L398.0 302.0" /><polygon style="fill:#000000; stroke:#000000;" points=" 388 297 398 302 388 307 390 302" /><path style="fill:none; stroke:#000000;stroke-width:1" d="M216.0 420.0 L398.0 420.0" /><polygon style="fill:#000000; stroke:#000000;" points=" 388 415 398 420 388 425 390 420" /><path style="fill:none; stroke:#000000;stroke-width:1" d="M162.0 456.0 L163.0 537.0 L198.0 537.0" /><polygon style="fill:#000000; stroke:#000000;" points=" 188 532 198 537 188 542 190 537" /><path style="fill:none; stroke:#000000;stroke-width:1" d="M436.0 537.0 L488.0 537.0" /><polygon style="fill:#000000; stroke:#000000;" points=" 478 532 488 537 478 542 480 537" /><path style="fill:none; stroke:#000000;stroke-width:1" d="M260.0 537.0 L328.0 537.0" /><polygon style="fill:#000000; stroke:#000000;" points=" 318 532 328 537 318 542 320 537" /><path style="fill:none; stroke:#000000;stroke-width:1" d="M706.0 302.0 L768.0 302.0" /><polygon style="fill:#000000; stroke:#000000;" points=" 758 297 768 302 758 307 760 302" /><path style="fill:none; stroke:#000000;stroke-width:1" d="M652.0 345.0 L652.0 852.0" /><polygon style="fill:#000000; stroke:#000000;" points=" 657 842 652 852 647 842 652 844" /><path style="fill:none; stroke:#000000;stroke-width:1" d="M652.0 852.0 L652.0 345.0" /><polygon style="fill:#000000; stroke:#000000;" points=" 647 355 652 345 657 355 652 353" /><path style="fill:none; stroke:#000000;stroke-width:1" d="M518.0 492.0 L519.0 303.0 L598.0 302.0" /><polygon style="fill:#000000; stroke:#000000;" points=" 588 297 598 302 588 307 590 302" /><path style="fill:none; stroke:#000000;stroke-width:1" d="M981.0 924.0 L982.0 1006.0 L1158.0 1005.0" /><polygon style="fill:#000000; stroke:#000000;" points=" 1148 1000 1158 1005 1148 1010 1150 1005" /><path style="fill:none; stroke:#000000;stroke-width:1" d="M1036.0 888.0 L1358.0 888.0" /><polygon style="fill:#000000; stroke:#000000;" points=" 1348 883 1358 888 1348 893 1350 888" /><path style="fill:none; stroke:#000000;stroke-width:1" d="M1158.0 1005.0 L982.0 1006.0 L981.0 924.0" /><polygon style="fill:#000000; stroke:#000000;" points=" 976 934 981 924 986 934 981 932" /><path style="fill:none; stroke:#000000;stroke-width:1" d="M850.0 888.0 L928.0 888.0" /><polygon style="fill:#000000; stroke:#000000;" points=" 918 883 928 888 918 893 920 888" /><path style="fill:none; stroke:#000000;stroke-width:1" d="M1266.0 1005.0 L1389.0 1006.0 L1389.0 933.0" /><polygon style="fill:#000000; stroke:#000000;" points=" 1384 943 1389 933 1394 943 1389 941" /><path style="fill:none; stroke:#000000;stroke-width:1" d="M1941.0 612.0 L1942.0 303.0 L2068.0 302.0" /><polygon style="fill:#000000; stroke:#000000;" points=" 2058 297 2068 302 2058 307 2060 302" /><path style="fill:none; stroke:#000000;stroke-width:1" d="M2068.0 302.0 L1943.0 303.0 L1942.0 612.0" /><polygon style="fill:#000000; stroke:#000000;" points=" 1947 602 1942 612 1937 602 1942 604" /><path style="fill:none; stroke:#000000;stroke-width:1" d="M2122.0 345.0 L2123.0 1005.0 L2308.0 1005.0" /><polygon style="fill:#000000; stroke:#000000;" points=" 2298 1000 2308 1005 2298 1010 2300 1005" /><path style="fill:none; stroke:#000000;stroke-width:1" d="M2176.0 302.0 L2358.0 303.0 L2358.0 65.0 L2508.0 64.0" /><polygon style="fill:#000000; stroke:#000000;" points=" 2498 59 2508 64 2498 69 2500 64" /><path style="fill:none; stroke:#000000;stroke-width:1" d="M1389.0 844.0 L1390.0 303.0 L2068.0 302.0" /><polygon style="fill:#000000; stroke:#000000;" points=" 2058 297 2068 302 2058 307 2060 302" /><path style="fill:none; stroke:#000000;stroke-width:1" d="M2361.0 969.0 L2362.0 65.0 L2508.0 64.0" /><polygon style="fill:#000000; stroke:#000000;" points=" 2498 59 2508 64 2498 69 2500 64" /><path style="fill:none; stroke:#000000;stroke-width:1" d="M2561.0 113.0 L2562.0 301.0 L2958.0 302.0" /><polygon style="fill:#000000; stroke:#000000;" points=" 2948 297 2958 302 2948 307 2950 302" /><path style="fill:none; stroke:#000000;stroke-width:1" d="M3012.0 100.0 L3012.0 260.0" /><polygon style="fill:#000000; stroke:#000000;" points=" 3017 250 3012 260 3007 250 3012 252" /><path style="fill:none; stroke:#000000;stroke-width:1" d="M3012.0 260.0 L3012.0 100.0" /><polygon style="fill:#000000; stroke:#000000;" points=" 3007 110 3012 100 3017 110 3012 108" /><path style="fill:none; stroke:#000000;stroke-width:1" d="M3066.0 302.0 L3148.0 302.0" /><polygon style="fill:#000000; stroke:#000000;" points=" 3138 297 3148 302 3138 307 3140 302" /><path style="fill:none; stroke:#000000;stroke-width:1" d="M706.0 888.0 L788.0 888.0" /><polygon style="fill:#000000; stroke:#000000;" points=" 778 883 788 888 778 893 780 888" /><path style="fill:none; stroke:#000000;stroke-width:1" d="M229.0 582.0 L227.0 1112.0 L328.0 1113.0" /><polygon style="fill:#000000; stroke:#000000;" points=" 318 1108 328 1113 318 1118 320 1113" /><path style="fill:none; stroke:#000000;stroke-width:1" d="M436.0 1114.0 L517.0 1115.0 L518.0 582.0" /><polygon style="fill:#000000; stroke:#000000;" points=" 513 592 518 582 523 592 518 590" /><path style="fill:none; stroke:#000000;stroke-width:1" d="M820.0 844.0 L820.0 680.0" /><polygon style="fill:#000000; stroke:#000000;" points=" 815 690 820 680 825 690 820 688" /><path style="fill:none; stroke:#000000;stroke-width:1" d="M873.0 644.0 L1114.0 644.0 L1114.0 889.0 L1358.0 888.0" /><polygon style="fill:#000000; stroke:#000000;" points=" 1348 883 1358 888 1348 893 1350 888" /><defs><linearGradient xmlns:xlink="http://www.w3.org/1999/xlink" xlink:href="#linearGradient66FF6696FF96B6FFB6" id="linearGradient66FF6696FF96B6FFB6_1873606376" x1="0" y1="47.0" x2="0" y2="82.0" gradientUnits="userSpaceOnUse" xlink:type="simple" xlink:actuate="onLoad" xlink:show="other" /><linearGradient id="linearGradient66FF6696FF96B6FFB6"><stop style="stop-color:#66FF66;stop-opacity:1;" offset="0.0" id="stop66FF66" /><stop style="stop-color:#96FF96;stop-opacity:1;" offset="0.5" id="stop96FF96" /><stop style="stop-color:#B6FFB6;stop-opacity:1;" offset="1.0" id="stopB6FFB6" /></linearGradient><linearGradient xmlns:xlink="http://www.w3.org/1999/xlink" xlink:href="#linearGradientF8FBFEEDF5FCDEEDFAD4E7F8E2E5E9" id="linearGradientF8FBFEEDF5FCDEEDFAD4E7F8E2E5E9_1634407789" x1="0" y1="159.0" x2="0" y2="265.0" gradientUnits="userSpaceOnUse" xlink:type="simple" xlink:actuate="onLoad" xlink:show="other" /><linearGradient id="linearGradientF8FBFEEDF5FCDEEDFAD4E7F8E2E5E9"><stop style="stop-color:#F8FBFE;stop-opacity:1;" offset="0.0" id="stopF8FBFE" /><stop style="stop-color:#EDF5FC;stop-opacity:1;" offset="0.25" id="stopEDF5FC" /><stop style="stop-color:#DEEDFA;stop-opacity:1;" offset="0.5" id="stopDEEDFA" /><stop style="stop-color:#D4E7F8;stop-opacity:1;" offset="0.75" id="stopD4E7F8" /><stop style="stop-color:#E2E5E9;stop-opacity:1;" offset="1.0" id="stopE2E5E9" /></linearGradient><linearGradient xmlns:xlink="http://www.w3.org/1999/xlink" xlink:href="#linearGradientF8FBFEEDF5FCDEEDFAD4E7F8E2E5E9" id="linearGradientF8FBFEEDF5FCDEEDFAD4E7F8E2E5E9_1700044184" x1="0" y1="36.0" x2="0" y2="142.0" gradientUnits="userSpaceOnUse" xlink:type="simple" xlink:actuate="onLoad" xlink:show="other" /><linearGradient xmlns:xlink="http://www.w3.org/1999/xlink" xlink:href="#linearGradientF8FBFEEDF5FCDEEDFAD4E7F8E2E5E9" id="linearGradientF8FBFEEDF5FCDEEDFAD4E7F8E2E5E9_542515030" x1="0" y1="268.0" x2="0" y2="374.0" gradientUnits="userSpaceOnUse" xlink:type="simple" xlink:actuate="onLoad" xlink:show="other" /><linearGradient xmlns:xlink="http://www.w3.org/1999/xlink" xlink:href="#linearGradientF8FBFEEDF5FCDEEDFAD4E7F8E2E5E9" id="linearGradientF8FBFEEDF5FCDEEDFAD4E7F8E2E5E9_684045826" x1="0" y1="386.0" x2="0" y2="492.0" gradientUnits="userSpaceOnUse" xlink:type="simple" xlink:actuate="onLoad" xlink:show="other" /><linearGradient xmlns:xlink="http://www.w3.org/1999/xlink" xlink:href="#linearGradientF8FBFEEDF5FCDEEDFAD4E7F8E2E5E9" id="linearGradientF8FBFEEDF5FCDEEDFAD4E7F8E2E5E9_289152522" x1="0" y1="503.0" x2="0" y2="609.0" gradientUnits="userSpaceOnUse" xlink:type="simple" xlink:actuate="onLoad" xlink:show="other" /><linearGradient xmlns:xlink="http://www.w3.org/1999/xlink" xlink:href="#linearGradientF8FBFEEDF5FCDEEDFAD4E7F8E2E5E9" id="linearGradientF8FBFEEDF5FCDEEDFAD4E7F8E2E5E9_1346759144" x1="0" y1="261.0" x2="0" y2="367.0" gradientUnits="userSpaceOnUse" xlink:type="simple" xlink:actuate="onLoad" xlink:show="other" /><linearGradient xmlns:xlink="http://www.w3.org/1999/xlink" xlink:href="#linearGradientF8FBFEEDF5FCDEEDFAD4E7F8E2E5E9" id="linearGradientF8FBFEEDF5FCDEEDFAD4E7F8E2E5E9_1081729049" x1="0" y1="854.0" x2="0" y2="960.0" gradientUnits="userSpaceOnUse" xlink:type="simple" xlink:actuate="onLoad" xlink:show="other" /><linearGradient xmlns:xlink="http://www.w3.org/1999/xlink" xlink:href="#linearGradientF8FBFEEDF5FCDEEDFAD4E7F8E2E5E9" id="linearGradientF8FBFEEDF5FCDEEDFAD4E7F8E2E5E9_1166617522" x1="0" y1="964.0" x2="0" y2="1070.0" gradientUnits="userSpaceOnUse" xlink:type="simple" xlink:actuate="onLoad" xlink:show="other" /><linearGradient xmlns:xlink="http://www.w3.org/1999/xlink" xlink:href="#linearGradientF8FBFEEDF5FCDEEDFAD4E7F8E2E5E9" id="linearGradientF8FBFEEDF5FCDEEDFAD4E7F8E2E5E9_875864391" x1="0" y1="613.0" x2="0" y2="719.0" gradientUnits="userSpaceOnUse" xlink:type="simple" xlink:actuate="onLoad" xlink:show="other" /><linearGradient xmlns:xlink="http://www.w3.org/1999/xlink" xlink:href="#linearGradientF8FBFEEDF5FCDEEDFAD4E7F8E2E5E9" id="linearGradientF8FBFEEDF5FCDEEDFAD4E7F8E2E5E9_1262552192" x1="0" y1="261.0" x2="0" y2="367.0" gradientUnits="userSpaceOnUse" xlink:type="simple" xlink:actuate="onLoad" xlink:show="other" /><linearGradient xmlns:xlink="http://www.w3.org/1999/xlink" xlink:href="#linearGradientF8FBFEEDF5FCDEEDFAD4E7F8E2E5E9" id="linearGradientF8FBFEEDF5FCDEEDFAD4E7F8E2E5E9_1144478937" x1="0" y1="971.0" x2="0" y2="1077.0" gradientUnits="userSpaceOnUse" xlink:type="simple" xlink:actuate="onLoad" xlink:show="other" /><linearGradient xmlns:xlink="http://www.w3.org/1999/xlink" xlink:href="#linearGradientF8FBFEEDF5FCDEEDFAD4E7F8E2E5E9" id="linearGradientF8FBFEEDF5FCDEEDFAD4E7F8E2E5E9_1223637846" x1="0" y1="15.0" x2="0" y2="121.0" gradientUnits="userSpaceOnUse" xlink:type="simple" xlink:actuate="onLoad" xlink:show="other" /><linearGradient xmlns:xlink="http://www.w3.org/1999/xlink" xlink:href="#linearGradientF8FBFEEDF5FCDEEDFAD4E7F8E2E5E9" id="linearGradientF8FBFEEDF5FCDEEDFAD4E7F8E2E5E9_1497404821" x1="0" y1="29.0" x2="0" y2="135.0" gradientUnits="userSpaceOnUse" xlink:type="simple" xlink:actuate="onLoad" xlink:show="other" /><linearGradient xmlns:xlink="http://www.w3.org/1999/xlink" xlink:href="#linearGradientF8FBFEEDF5FCDEEDFAD4E7F8E2E5E9" id="linearGradientF8FBFEEDF5FCDEEDFAD4E7F8E2E5E9_442953529" x1="0" y1="261.0" x2="0" y2="367.0" gradientUnits="userSpaceOnUse" xlink:type="simple" xlink:actuate="onLoad" xlink:show="other" /><linearGradient xmlns:xlink="http://www.w3.org/1999/xlink" xlink:href="#linearGradientFF6666FF9696FFB6B6" id="linearGradientFF6666FF9696FFB6B6_1682553144" x1="0" y1="286.0" x2="0" y2="321.0" gradientUnits="userSpaceOnUse" xlink:type="simple" xlink:actuate="onLoad" xlink:show="other" /><linearGradient id="linearGradientFF6666FF9696FFB6B6"><stop style="stop-color:#FF6666;stop-opacity:1;" offset="0.0" id="stopFF6666" /><stop style="stop-color:#FF9696;stop-opacity:1;" offset="0.5" id="stopFF9696" /><stop style="stop-color:#FFB6B6;stop-opacity:1;" offset="1.0" id="stopFFB6B6" /></linearGradient><linearGradient xmlns:xlink="http://www.w3.org/1999/xlink" xlink:href="#linearGradientFF6666FF9696FFB6B6" id="linearGradientFF6666FF9696FFB6B6_1431112556" x1="0" y1="176.0" x2="0" y2="211.0" gradientUnits="userSpaceOnUse" xlink:type="simple" xlink:actuate="onLoad" xlink:show="other" /><linearGradient xmlns:xlink="http://www.w3.org/1999/xlink" xlink:href="#linearGradientFF6666FF9696FFB6B6" id="linearGradientFF6666FF9696FFB6B6_142397549" x1="0" y1="286.0" x2="0" y2="321.0" gradientUnits="userSpaceOnUse" xlink:type="simple" xlink:actuate="onLoad" xlink:show="other" /><linearGradient xmlns:xlink="http://www.w3.org/1999/xlink" xlink:href="#linearGradientFF6666FF9696FFB6B6" id="linearGradientFF6666FF9696FFB6B6_634321276" x1="0" y1="403.0" x2="0" y2="438.0" gradientUnits="userSpaceOnUse" xlink:type="simple" xlink:actuate="onLoad" xlink:show="other" /><linearGradient xmlns:xlink="http://www.w3.org/1999/xlink" xlink:href="#linearGradientF8FBFEEDF5FCDEEDFAD4E7F8E2E5E9" id="linearGradientF8FBFEEDF5FCDEEDFAD4E7F8E2E5E9_208077956" x1="0" y1="854.0" x2="0" y2="960.0" gradientUnits="userSpaceOnUse" xlink:type="simple" xlink:actuate="onLoad" xlink:show="other" /><linearGradient xmlns:xlink="http://www.w3.org/1999/xlink" xlink:href="#linearGradientFF6666FF9696FFB6B6" id="linearGradientFF6666FF9696FFB6B6_827095055" x1="0" y1="286.0" x2="0" y2="321.0" gradientUnits="userSpaceOnUse" xlink:type="simple" xlink:actuate="onLoad" xlink:show="other" /><linearGradient xmlns:xlink="http://www.w3.org/1999/xlink" xlink:href="#linearGradientFAFBFCFFFFCC" id="linearGradientFAFBFCFFFFCC_1608333811" x1="0" y1="494.0" x2="0" y2="554.0" gradientUnits="userSpaceOnUse" xlink:type="simple" xlink:actuate="onLoad" xlink:show="other" /><linearGradient id="linearGradientFAFBFCFFFFCC"><stop style="stop-color:#FAFBFC;stop-opacity:1;" offset="0.0" id="stopFAFBFC" /><stop style="stop-color:#FFFFCC;stop-opacity:1;" offset="1.0" id="stopFFFFCC" /></linearGradient><linearGradient xmlns:xlink="http://www.w3.org/1999/xlink" xlink:href="#linearGradientFAFBFCFFFFCC" id="linearGradientFAFBFCFFFFCC_227159661" x1="0" y1="494.0" x2="0" y2="554.0" gradientUnits="userSpaceOnUse" xlink:type="simple" xlink:actuate="onLoad" xlink:show="other" /><linearGradient xmlns:xlink="http://www.w3.org/1999/xlink" xlink:href="#linearGradientF8FBFEEDF5FCDEEDFAD4E7F8E2E5E9" id="linearGradientF8FBFEEDF5FCDEEDFAD4E7F8E2E5E9_972900476" x1="0" y1="1080.0" x2="0" y2="1186.0" gradientUnits="userSpaceOnUse" xlink:type="simple" xlink:actuate="onLoad" xlink:show="other" /><linearGradient xmlns:xlink="http://www.w3.org/1999/xlink" xlink:href="#linearGradientFAFBFCFFFFCC" id="linearGradientFAFBFCFFFFCC_1797505868" x1="0" y1="845.0" x2="0" y2="905.0" gradientUnits="userSpaceOnUse" xlink:type="simple" xlink:actuate="onLoad" xlink:show="other" /><linearGradient xmlns:xlink="http://www.w3.org/1999/xlink" xlink:href="#linearGradientFAFBFCFFFFCC" id="linearGradientFAFBFCFFFFCC_1569160570" x1="0" y1="845.0" x2="0" y2="905.0" gradientUnits="userSpaceOnUse" xlink:type="simple" xlink:actuate="onLoad" xlink:show="other" /><linearGradient xmlns:xlink="http://www.w3.org/1999/xlink" xlink:href="#linearGradientF8FBFEEDF5FCDEEDFAD4E7F8E2E5E9" id="linearGradientF8FBFEEDF5FCDEEDFAD4E7F8E2E5E9_19061217" x1="0" y1="610.0" x2="0" y2="716.0" gradientUnits="userSpaceOnUse" xlink:type="simple" xlink:actuate="onLoad" xlink:show="other" /></defs></svg>
